<svg width="172" height="72" viewBox="0 0 172 72" fill="none" xmlns="http://www.w3.org/2000/svg">
<path d="M148.253 1C144.692 1 138.609 1.60028 130.485 2.76077C118.28 4.4815 109.997 6.16224 101.473 8.56326C93.6294 10.8042 92.1087 11.5246 93.2692 12.565C93.7894 13.0453 97.271 13.7656 101.073 14.2058C102.473 14.3258 102.353 14.0056 100.913 13.7656C97.9512 13.2854 93.9095 12.2449 94.1896 12.0048C94.7498 11.4845 106.635 8.28321 112.718 7.00262C114.198 6.68248 115.599 6.36237 115.799 6.32231L116.119 6.24227L115.759 7.08266C114.799 9.28364 111.837 18.6077 109.956 25.2906C109.636 26.4911 109.356 27.4915 109.316 27.5316C109.276 27.5716 107.916 27.8117 106.315 28.0118C104.674 28.2519 103.274 28.532 103.154 28.6121C103.073 28.6921 103.073 28.8921 103.113 29.0523C103.234 29.3324 103.394 29.3324 104.474 29.2523C105.154 29.2124 106.395 29.0523 107.275 28.8921C108.116 28.7321 108.836 28.652 108.876 28.6921C108.916 28.7721 108.316 31.2132 107.515 34.2145C104.954 43.8987 104.554 45.8596 104.674 48.3807C104.714 49.4611 104.754 49.8212 104.994 50.1014C105.394 50.5016 106.075 50.5416 106.435 50.1415C107.115 49.3811 108.276 46.1797 107.996 45.8996C107.916 45.8195 107.635 46.2198 107.275 46.86C106.915 47.4603 106.475 48.2206 106.275 48.5007L105.875 49.061L105.995 47.5403C106.075 46.1797 106.675 42.9383 107.195 40.8974C107.275 40.5373 107.956 37.656 108.756 34.4546C109.516 31.2532 110.157 28.572 110.237 28.492C110.357 28.332 116.399 27.2915 116.559 27.4116C116.599 27.4516 116.519 27.7717 116.359 28.1319C115.759 29.2924 115.199 31.0932 115.199 31.7735C115.199 32.5738 115.559 32.934 116.159 32.7339C116.679 32.5738 117.76 31.3333 119 29.4525C119.681 28.4521 120.241 27.5717 120.321 27.4916C120.361 27.4517 120.401 28.0119 120.401 28.7322C120.401 30.2528 120.641 30.733 121.401 30.733C122.122 30.733 123.682 28.7322 125.203 25.8509C125.643 25.0506 126.003 24.4103 126.003 24.3703C126.083 24.2502 127.044 24.8505 127.044 24.9705C127.044 25.0506 126.724 26.011 126.284 27.0915C125.123 30.2528 124.843 31.6935 124.683 33.8544C124.603 34.9749 124.883 36.8957 125.883 36.4955C126.444 36.2955 126.444 36.1354 125.883 36.0954C125.523 36.0954 125.523 36.0554 125.523 34.8948C125.563 33.3342 126.043 31.3734 127.124 28.4521C128.444 24.8505 128.444 24.4103 127.044 23.9301L126.284 23.69L126.564 22.6896C126.964 21.409 126.924 20.7687 126.404 20.6887C125.923 20.6087 125.323 21.1689 125.003 22.0493C124.683 23.0898 124.963 23.4899 125.483 24.0902L124.483 25.8109C123.442 27.5317 121.802 29.8127 121.481 29.8927C121.241 29.9727 121.121 29.0123 121.241 27.3316C121.361 25.0106 121.241 25.0507 119.28 27.8519C117.88 29.8927 116.559 31.3734 116.719 30.7331C116.919 29.8927 119.04 25.8109 119.681 25.1307L120.321 24.4103L120.601 24.8105C121.001 25.3307 121.441 25.1707 121.441 24.4504C121.441 23.65 121.041 23.2099 120.361 23.2099C119.841 23.2099 119.641 23.3699 118.88 24.1302C118.4 24.6504 117.72 25.4908 117.44 26.0511L116.879 27.0115L115.519 27.0515C114.758 27.0515 113.358 27.1316 112.397 27.2516C111.477 27.3316 110.637 27.3717 110.597 27.3316C110.317 27.0515 115.959 7.28293 116.599 6.32245C116.639 6.20245 118.6 5.80221 120.961 5.40206C136.408 2.72087 150.654 1.16021 151.535 2.04066C151.695 2.16066 151.575 2.40076 151.054 2.96098C150.214 3.8414 150.534 3.92143 151.494 3.04108C152.375 2.28073 152.375 1.84052 151.454 1.40031C150.934 1.1201 149.854 1 148.253 1ZM45.0482 6.12227C44.9282 6.12227 44.8081 6.12227 44.6481 6.12227C43.0874 6.32231 37.8451 9.24357 31.6424 13.4054C23.5189 18.8077 20.3175 22.0892 21.638 23.5298C21.7981 23.7299 22.1583 23.8899 22.4384 23.97C23.1187 24.0901 25.9999 23.6498 28.321 23.0496C30.4819 22.5294 33.2031 21.9291 33.6433 21.9291C33.8834 21.9291 33.8834 22.0092 33.5232 22.3693C33.3231 22.5694 32.6829 23.1297 32.1226 23.5698C20.7577 32.4937 14.715 38.2963 9.47274 45.2592C4.67065 51.622 1.82942 57.3846 1.14911 62.2666C0.468823 66.9887 2.14954 70.3102 5.51101 70.9104C7.59192 71.3106 10.8733 70.3502 14.0747 68.4293C17.1561 66.5486 20.8377 63.1471 23.7589 59.5055C29.8816 51.7821 35.6441 43.2584 39.0856 36.8156L40.1261 34.8147L40.0461 35.7751C39.846 37.4959 39.926 38.7764 40.2461 39.2166C40.9664 40.177 41.7268 39.6568 42.8072 37.4158C43.6076 35.7751 45.0882 31.9334 45.0882 31.4533C45.0882 31.3332 45.1283 31.2132 45.2483 31.2132C45.3283 31.2132 45.4084 31.2932 45.4084 31.3732C45.4084 31.6133 46.2887 32.0135 46.809 32.0135C47.0891 32.0135 47.3292 32.0935 47.3292 32.1735C47.3292 32.2536 47.0091 32.8138 46.6489 33.3741C45.3283 35.495 45.1283 37.2958 46.2087 37.2958C46.809 37.2958 47.9295 36.1753 49.7703 33.7342L51.0909 31.9734L51.1709 32.9739C51.2109 33.8142 51.291 34.0544 51.6911 34.3745C52.2514 34.8547 52.4515 34.8547 53.652 34.2945C54.8525 33.6942 56.3732 32.5737 57.3336 31.4932C57.9339 30.853 58.0539 30.7329 57.9739 31.0531C57.0935 34.1744 57.0535 34.9747 57.6938 34.9747C58.0139 34.9747 58.294 34.6947 59.0143 33.6142C59.5346 32.8938 60.455 31.6934 61.0552 30.973L62.1357 29.6925L62.2157 31.2132C62.3358 32.9739 62.4959 33.4542 63.0961 33.9344C63.8564 34.5346 64.8969 34.2945 66.7777 33.054C67.6581 32.4937 67.8982 32.4137 67.7381 32.6538C67.5381 32.9339 67.6181 34.7347 67.8182 34.9748C67.8982 35.1349 68.2183 35.2149 68.4985 35.2149C69.2588 35.2149 70.5394 33.7743 71.6599 31.6934C72.1801 30.773 72.6603 29.9326 72.7403 29.7726C72.8604 29.6125 72.9004 30.2128 72.9004 31.5333C72.9404 35.2549 73.6607 37.4559 74.8612 37.4559C75.2614 37.4559 75.6616 37.2158 75.6616 36.9357C75.6616 36.8956 75.4615 36.8556 75.2614 36.9357C74.9813 36.9756 74.8212 36.9357 74.6612 36.6555C74.0209 35.375 73.7007 31.8934 74.0609 28.7321C74.221 26.8913 74.301 26.6912 75.3815 24.0901C77.2223 19.8482 77.9026 17.8474 78.7829 14.2458C79.5032 11.2445 79.6233 9.9639 79.3032 9.8439C78.7829 9.64376 78.3427 10.124 77.4223 12.0849C75.7816 15.4464 74.421 20.0083 73.3406 25.7308C73.1405 26.8913 72.8203 28.0519 72.7003 28.292L72.4602 28.7321V28.212C72.4602 27.5716 71.8599 26.8913 71.2597 26.8913C70.5794 26.8913 69.779 27.8117 68.9387 29.4925C68.0583 31.2532 67.7382 31.5734 65.8173 32.5738C63.7764 33.6143 63.4963 33.3342 63.4963 30.5729C63.4963 28.9322 63.4563 28.6922 63.1762 28.4521C63.0161 28.2519 62.736 28.212 62.5759 28.2519C62.4159 28.292 61.5755 29.1723 60.7751 30.1728C59.9348 31.1732 59.2545 32.0136 59.2144 31.9735C59.2144 31.9735 59.4145 31.1732 59.6546 30.2929C59.9348 29.3725 60.0948 28.492 60.0548 28.332C59.8947 27.8117 59.4145 27.9718 58.9343 28.6521C57.8538 30.2129 53.5319 33.4542 52.5315 33.4542C52.2514 33.4542 52.1313 32.6939 52.3314 31.4933C52.6116 29.7726 52.5715 29.5325 52.1714 29.5725C51.9313 29.6126 51.8112 29.5325 51.8112 29.4124C51.8112 29.2924 51.6912 29.0923 51.5711 28.9722C51.211 28.6922 50.5707 29.0123 49.4102 30.0127C47.9295 31.3333 46.3689 31.5334 45.8886 30.4929C45.6485 29.9727 45.6886 29.5325 45.9687 28.6121C46.0887 28.1719 46.2088 27.5716 46.2088 27.2916C46.2088 26.8514 46.1288 26.7313 45.8886 26.7313C45.4885 26.7313 45.2484 27.2515 45.0483 28.6521C44.8482 29.8926 44.0879 32.2137 43.0474 34.5747C42.2871 36.2955 41.4467 37.9362 41.2866 37.9362C41.1266 37.9362 41.3667 34.6948 41.7268 32.4538C42.087 30.2128 42.0469 29.7726 41.5267 29.9727C41.4067 30.0127 41.1266 30.613 40.9265 31.2532C40.1261 33.7343 38.1253 37.3359 34.2436 43.1785C29.2814 50.7017 24.0391 57.6647 20.5976 61.3464C17.0761 65.108 13.2344 67.7892 9.51281 69.0297C8.19222 69.4699 7.87208 69.5099 6.55152 69.4699C5.31097 69.3899 5.03085 69.3098 4.4306 68.9497C1.14918 66.7887 2.14961 59.7456 6.83164 51.7822C10.2331 46.0197 14.7551 40.4173 20.7577 34.4947C23.9991 31.3734 26 29.5326 30.4819 25.8109C34.0835 22.7696 34.5637 22.3294 34.4837 21.8892C34.4036 21.369 33.2431 21.369 30.2818 21.9692C22.1183 23.5699 21.518 23.4899 23.9591 21.0889C25.4797 19.6082 29.8016 16.2868 33.5633 13.7256C37.685 10.9244 43.5676 7.52298 44.2879 7.52298C44.528 7.52298 43.8077 8.52341 40.2462 13.1254C38.4854 15.3664 37.0848 17.3272 37.1248 17.4473C37.2849 18.3277 38.2053 17.4072 42.3671 12.245C45.7686 8.00319 46.1687 7.28288 45.6485 6.48249C45.4484 6.2023 45.3684 6.12227 45.0482 6.12227ZM78.823 10.9643C78.823 11.0044 78.863 11.0044 78.863 11.0444C78.863 11.1644 78.6229 12.2849 78.3027 13.5255C77.6625 16.1666 76.702 19.2479 75.7816 21.529C75.1414 23.1696 74.7412 23.8099 74.9013 23.0496C75.4215 20.7286 76.582 16.3267 77.1022 14.846C77.7025 13.0853 78.7029 10.8843 78.823 10.9643ZM170.543 17.6873C170.383 17.6873 170.423 17.8473 170.703 18.1275C171.223 18.7277 171.223 18.8478 170.983 19.368C170.143 21.0087 163.54 24.4502 155.416 27.4515C148.533 30.0126 142.251 30.6929 140.25 29.1323C139.489 28.532 139.289 27.9317 139.289 26.331C139.289 25.0105 139.249 24.8904 138.929 24.8504C138.729 24.8103 138.449 25.0105 138.009 25.5707C136.928 26.9313 135.328 28.6921 135.248 28.612C135.087 28.452 136.928 25.2505 137.729 24.2902C137.969 24.0501 138.009 24.0501 138.369 24.3702C138.649 24.6503 138.769 24.6903 138.889 24.5303C138.929 24.4102 138.929 24.0901 138.889 23.8099C138.409 22.2492 137.288 22.6894 135.568 25.1705C134.447 26.7712 132.446 28.532 130.525 29.6125L129.605 30.1327V29.6125C129.605 29.3323 129.925 28.1318 130.325 26.8912C130.726 25.6507 131.046 24.5303 131.006 24.3702C130.966 24.2101 130.806 24.0901 130.646 24.0901C130.045 24.0901 128.565 27.5716 128.365 29.4124C128.284 30.3328 128.284 30.4128 128.725 30.813C129.045 31.1731 129.245 31.2532 129.645 31.1731C130.365 31.0131 131.686 30.1727 132.846 29.1323C133.647 28.4119 133.807 28.3319 133.687 28.652C133.407 29.6925 133.407 30.0126 133.727 30.3328C133.967 30.5329 134.167 30.5729 134.407 30.4928C134.967 30.3328 136.208 29.0922 137.408 27.5716C137.969 26.8513 138.449 26.251 138.449 26.251C138.489 26.251 138.489 26.7312 138.489 27.2514C138.529 28.8121 139.169 29.7725 140.69 30.4128C142.331 31.1332 145.772 31.1332 149.294 30.4128C157.417 28.7721 170.263 22.4893 171.463 19.6081C171.743 18.9678 171.543 18.2475 170.943 17.8474C170.743 17.7273 170.623 17.6873 170.543 17.6873ZM131.206 20.0883C130.646 20.0883 130.325 20.8086 130.806 21.3288C131.126 21.649 131.246 21.689 131.686 21.4489C132.206 21.1688 132.086 20.3685 131.486 20.1284C131.366 20.0883 131.286 20.0883 131.206 20.0883ZM126.364 21.0488C126.404 21.0488 126.404 21.1288 126.404 21.2488C126.404 21.4089 126.284 21.9291 126.164 22.4093C126.004 22.8495 125.843 23.2097 125.763 23.2097C125.163 23.2097 125.443 21.729 126.164 21.1687C126.244 21.0488 126.324 21.0087 126.364 21.0488ZM103.634 24.1701C103.554 24.1701 103.434 24.2902 103.314 24.4902C103.114 24.8504 102.673 25.1705 101.873 25.5307C100.432 26.1709 96.3106 27.4115 93.5893 27.9317C91.4684 28.3719 88.9473 28.652 88.9473 28.4119C88.9473 28.3319 89.0274 27.8517 89.1074 27.2914C89.4275 25.4506 88.7873 24.3702 87.5467 24.5702C87.2266 24.6103 86.7864 24.7704 86.5863 24.8904C86.1461 25.2106 85.5859 26.291 85.5859 26.9313C85.5859 27.5716 85.1057 27.7316 83.545 27.6916C82.3444 27.6116 82.1443 27.5715 81.8642 27.2514C81.7042 27.0514 81.5841 26.6912 81.5841 26.4511C81.5841 25.9708 81.304 25.6107 80.9839 25.6107C80.9038 25.6107 80.2636 26.5711 79.6633 27.6916C79.023 28.8521 78.4628 29.7725 78.4227 29.7325C78.3827 29.6925 78.5028 29.0922 78.7029 28.452C79.3431 26.131 78.8229 25.5707 77.8625 27.5316C77.1822 28.9322 76.3819 31.2932 76.1017 32.7738C75.9416 33.5742 75.9817 33.8143 76.1417 34.0144C76.662 34.6546 77.0221 34.2145 79.023 30.4128C79.8233 28.8921 80.5436 27.6116 80.5436 27.5716C80.5837 27.5316 80.7837 27.6917 80.9838 27.8917C81.5041 28.452 82.5445 28.7321 83.7851 28.6121C84.5854 28.532 84.7855 28.532 84.7455 28.6921C83.545 31.4132 83.3049 33.094 84.0652 33.8543C84.4654 34.2545 85.3057 34.1745 85.906 33.6542C86.5063 33.174 87.8268 31.2532 88.227 30.2128L88.5071 29.5324L90.468 29.3323C96.3505 28.7721 103.033 26.411 103.674 24.6903C103.834 24.3301 103.794 24.1301 103.634 24.1701ZM87.8669 25.1306C88.067 25.1705 88.187 25.2506 88.3071 25.4507C88.5072 25.8508 88.5072 26.8912 88.2671 27.8117C88.067 28.6121 88.107 28.572 87.3066 28.2519C86.7864 28.0118 86.7064 27.9317 86.7064 27.4516C86.7064 27.0914 86.6263 26.8513 86.4663 26.8112C86.0661 26.6511 86.1862 26.291 86.7864 25.6908C87.1466 25.2906 87.5467 25.1306 87.8669 25.1306ZM71.2997 28.2519L71.5798 28.652C71.7399 28.8921 71.9399 28.9721 72.14 28.9322C72.4602 28.8521 72.4602 28.8521 71.0595 31.3732C70.8194 31.7734 70.3793 32.4537 70.0591 32.8539C69.4589 33.6943 68.7786 34.2545 68.7786 33.9343C68.7786 33.8142 68.9787 33.134 69.2588 32.3336C69.779 30.773 70.4593 29.2923 70.9795 28.652L71.2997 28.2519ZM86.2262 28.572L86.9465 28.8921C87.3467 29.0923 87.6668 29.3323 87.6668 29.4524C87.6668 29.7726 86.5063 31.6934 85.866 32.3737C85.2257 33.094 84.9456 33.134 84.9456 32.6138C84.9456 32.1336 85.4658 30.3328 85.906 29.2924L86.2262 28.572ZM51.8512 29.6925L51.4911 30.2527C51.291 30.5729 50.5707 31.4933 49.9304 32.3336C48.4497 34.2945 46.849 36.0152 46.849 35.6951C46.849 35.375 48.3697 32.8138 49.05 32.0135C49.3701 31.6533 49.8103 31.2532 50.0504 31.1332C50.3305 31.0131 50.8508 30.6129 51.2109 30.2928L51.8512 29.6925ZM138.329 37.816C134.567 37.856 128.565 38.2162 121.041 38.9365C114.799 39.4967 109.156 40.097 109.076 40.177C109.036 40.2171 108.956 40.4572 108.876 40.6973C108.756 41.2175 108.596 41.2175 111.197 40.8973C114.158 40.5772 123.562 39.6168 127.604 39.2166C136.568 38.4163 142.05 38.2162 143.291 38.6563C144.051 38.9365 144.011 38.9365 144.011 38.7364C144.011 38.4162 142.971 38.0961 141.33 37.9361C140.61 37.856 139.609 37.816 138.329 37.816ZM103.794 40.6973C103.714 40.6973 103.634 40.7373 103.474 40.7373C103.194 40.7773 101.433 41.0174 99.592 41.2175C77.8225 43.8186 60.615 47.4603 44.368 52.8626C40.8064 54.0231 39.886 54.3833 39.6459 54.7034C39.2458 55.2236 39.2458 55.5037 39.5659 55.9039C39.9661 56.3441 40.4063 56.2641 42.207 55.5438C46.0487 54.0231 53.8121 51.542 59.8947 49.8613C71.9 46.5798 83.7451 44.2989 99.1118 42.338C101.553 42.0179 103.634 41.7377 103.714 41.6577C103.754 41.6177 103.874 41.3376 103.914 41.0975C103.994 40.7773 103.994 40.6973 103.794 40.6973Z" fill="white" stroke="white" stroke-width="0.5"/>
</svg>
