<svg width="14" height="14" viewBox="0 0 14 14" fill="none" xmlns="http://www.w3.org/2000/svg">
<path d="M7.00004 0.333252C6.12456 0.333252 5.25765 0.50569 4.44882 0.840722C3.63998 1.17575 2.90505 1.66682 2.286 2.28587C1.03575 3.53612 0.333374 5.23181 0.333374 6.99992C0.333374 9.94659 2.24671 12.4466 4.89337 13.3333C5.22671 13.3866 5.33337 13.1799 5.33337 12.9999V11.8733C3.48671 12.2733 3.09337 10.9799 3.09337 10.9799C2.78671 10.2066 2.35337 9.99992 2.35337 9.99992C1.74671 9.58659 2.40004 9.59992 2.40004 9.59992C3.06671 9.64659 3.42004 10.2866 3.42004 10.2866C4.00004 11.2999 4.98004 10.9999 5.36004 10.8399C5.42004 10.4066 5.59337 10.1133 5.78004 9.94659C4.30004 9.77992 2.74671 9.20659 2.74671 6.66659C2.74671 5.92659 3.00004 5.33325 3.43337 4.85992C3.36671 4.69325 3.13337 3.99992 3.50004 3.09992C3.50004 3.09992 4.06004 2.91992 5.33337 3.77992C5.86004 3.63325 6.43337 3.55992 7.00004 3.55992C7.56671 3.55992 8.14004 3.63325 8.66671 3.77992C9.94004 2.91992 10.5 3.09992 10.5 3.09992C10.8667 3.99992 10.6334 4.69325 10.5667 4.85992C11 5.33325 11.2534 5.92659 11.2534 6.66659C11.2534 9.21325 9.69337 9.77325 8.20671 9.93992C8.44671 10.1466 8.66671 10.5533 8.66671 11.1733V12.9999C8.66671 13.1799 8.77337 13.3933 9.11337 13.3333C11.76 12.4399 13.6667 9.94659 13.6667 6.99992C13.6667 6.12444 13.4943 5.25753 13.1592 4.4487C12.8242 3.63986 12.3331 2.90493 11.7141 2.28587C11.095 1.66682 10.3601 1.17575 9.55126 0.840722C8.74243 0.50569 7.87552 0.333252 7.00004 0.333252Z" fill="currentColor"/>
</svg>
