<svg width="21" height="16" viewBox="0 0 21 16" fill="none" xmlns="http://www.w3.org/2000/svg">
<path d="M20.916 3.53491V12.9999C20.9161 13.7651 20.6237 14.5014 20.0987 15.0582C19.5738 15.6149 18.8559 15.95 18.092 15.9949L17.916 15.9999H3.91602C3.1508 16 2.4145 15.7076 1.85775 15.1826C1.30101 14.6577 0.965908 13.9398 0.921016 13.1759L0.916016 12.9999V3.53491L10.361 9.83191L10.477 9.89791C10.6137 9.96471 10.7639 9.99942 10.916 9.99942C11.0682 9.99942 11.2183 9.96471 11.355 9.89791L11.471 9.83191L20.916 3.53491Z" fill="currentColor"/>
<path d="M17.916 0C18.996 0 19.943 0.57 20.471 1.427L10.916 7.797L1.36096 1.427C1.61169 1.01977 1.95618 0.678401 2.36567 0.431383C2.77516 0.184364 3.23779 0.0388562 3.71496 0.00699997L3.91596 0H17.916Z" fill="currentColor"/>
</svg>
