<svg width="21" height="20" viewBox="0 0 21 20" fill="none" xmlns="http://www.w3.org/2000/svg">
<path d="M10.917 0C16.44 0 20.917 4.477 20.917 10C20.917 15.523 16.44 20 10.917 20C9.14978 20.0029 7.41366 19.5352 5.88701 18.645L0.921006 20L2.27301 15.032C1.3821 13.5049 0.914054 11.768 0.917006 10C0.917006 4.477 5.39401 0 10.917 0ZM7.50901 5.3L7.30901 5.308C7.17953 5.31589 7.05299 5.3499 6.93701 5.408C6.82853 5.46943 6.7295 5.54622 6.64301 5.636C6.52301 5.749 6.45501 5.847 6.38201 5.942C6.01213 6.4229 5.81298 7.01331 5.81601 7.62C5.81801 8.11 5.94601 8.587 6.14601 9.033C6.55501 9.935 7.22801 10.89 8.11601 11.775C8.33001 11.988 8.54001 12.202 8.76601 12.401C9.8694 13.3725 11.1843 14.073 12.606 14.447L13.174 14.534C13.359 14.544 13.544 14.53 13.73 14.521C14.0212 14.506 14.3056 14.4271 14.563 14.29C14.694 14.2225 14.8218 14.1491 14.946 14.07C14.946 14.07 14.989 14.042 15.071 13.98C15.206 13.88 15.289 13.809 15.401 13.692C15.484 13.606 15.556 13.505 15.611 13.39C15.689 13.227 15.767 12.916 15.799 12.657C15.823 12.459 15.816 12.351 15.813 12.284C15.809 12.177 15.72 12.066 15.623 12.019L15.041 11.758C15.041 11.758 14.171 11.379 13.639 11.137C13.5833 11.1127 13.5237 11.0988 13.463 11.096C13.3946 11.089 13.3255 11.0967 13.2603 11.1186C13.1951 11.1405 13.1353 11.1761 13.085 11.223C13.08 11.221 13.013 11.278 12.29 12.154C12.2485 12.2098 12.1913 12.2519 12.1258 12.2751C12.0603 12.2982 11.9893 12.3013 11.922 12.284C11.8569 12.2665 11.793 12.2445 11.731 12.218C11.607 12.166 11.564 12.146 11.479 12.11C10.9051 11.8595 10.3737 11.5211 9.90401 11.107C9.77801 10.997 9.66101 10.877 9.54101 10.761C9.14759 10.3842 8.80473 9.95801 8.52101 9.493L8.46201 9.398C8.41963 9.33416 8.38537 9.2653 8.36001 9.193C8.32201 9.046 8.42101 8.928 8.42101 8.928C8.42101 8.928 8.66401 8.662 8.77701 8.518C8.88701 8.378 8.98001 8.242 9.04001 8.145C9.15801 7.955 9.19501 7.76 9.13301 7.609C8.85301 6.925 8.56301 6.244 8.26501 5.568C8.20601 5.434 8.03101 5.338 7.87201 5.319C7.81801 5.313 7.76401 5.307 7.71001 5.303C7.57571 5.29633 7.44114 5.29766 7.30701 5.307L7.50901 5.3Z" fill="currentColor"/>
</svg>
