<svg width="43" height="42" viewBox="0 0 43 42" fill="none" xmlns="http://www.w3.org/2000/svg">
<g clip-path="url(#clip0_2021_2685)">
<path d="M42.427 1.4798L38.614 37.8292L21.4744 41.8727L4.38204 37.8348L0.572998 1.4798H42.427Z" fill="currentColor"/>
<path d="M21.5 38.7819L35.3497 35.5146L38.6079 4.45227H21.5V38.7819Z" fill="currentColor"/>
<path d="M14.0876 13.37H21.4999V8.91122H8.36133L8.48667 10.1074L9.77456 22.3947H21.4999V17.9359H14.5665L14.0876 13.37ZM15.2685 24.6242H10.0087L10.7427 31.6251L21.4758 34.1605L21.4999 34.1549V29.5159L21.477 29.5211L15.6416 28.1802L15.2685 24.6242Z" fill="white"/>
<path d="M21.482 22.3947H27.9341L27.3257 28.1774L21.4818 29.5197V34.1584L32.2235 31.6251L32.3022 30.8718L33.5337 19.1332L33.6615 17.9359H21.482V22.3947ZM21.482 13.3591V13.37H34.1382L34.2432 12.3679L34.4821 10.1074L34.6073 8.91122H21.482V13.3591Z" fill="white"/>
</g>
<defs>
<clipPath id="clip0_2021_2685">
<rect width="42" height="42" fill="white" transform="translate(0.5)"/>
</clipPath>
</defs>
</svg>
