<svg width="251" height="194" viewBox="0 0 251 194" fill="none" xmlns="http://www.w3.org/2000/svg">
<path d="M40.7715 26.3474C43.5288 31.4283 45.94 35.9892 48.51 40.4597C48.8731 41.087 50.0135 41.6013 50.8021 41.607C72.4518 41.7257 94.1016 41.7709 115.746 41.85C116.954 41.8556 118.231 41.8443 119.36 42.2004C122.094 43.0595 123.047 45.2353 121.697 47.756C118.713 53.3116 115.598 58.7994 112.501 64.2929C110.969 67.017 108.643 68.0626 105.454 68.0343C92.8818 67.91 80.3039 67.9778 67.7259 67.9722C66.8976 67.9722 66.0693 67.9722 64.6339 67.9722C72.276 82.5253 79.6912 96.6432 87.424 111.366C92.0592 102.696 96.4391 94.4956 100.825 86.295C101.069 86.3628 101.313 86.425 101.551 86.4928C101.551 121.398 101.551 156.308 101.551 191.914C100.757 190.733 100.178 189.992 99.7297 189.179C82.6754 158.043 65.6438 126.891 48.5838 95.7559C33.0216 67.3448 17.4311 38.945 1.8632 10.5396C1.31855 9.55052 0.76821 8.54451 0.388091 7.48764C-0.939489 3.75751 1.25046 0.428673 5.25589 0.0443568C6.10123 -0.034767 6.95792 0.016088 7.80893 0.016088C87.7077 0.016088 167.606 0.016088 247.505 0.016088C248.589 0.016088 249.678 0.016088 250.762 0.016088C250.841 0.242156 250.921 0.468231 251 0.694299C250.489 1.10687 250.036 1.64379 249.457 1.91507C234.201 8.95144 218.94 15.9652 203.672 22.962C198.356 25.3979 192.791 26.4265 186.902 26.4152C139.438 26.3361 91.9684 26.3643 44.5046 26.3587C43.4777 26.3417 42.4508 26.3474 40.7715 26.3474Z" fill="currentColor"/>
<path d="M146.237 89.4847C149.662 89.4847 152.963 89.4847 156.263 89.4847C167.599 89.4904 178.935 89.4734 190.271 89.5471C191.366 89.5527 192.46 90.1593 193.555 90.4881C192.971 91.3894 192.545 92.4552 191.785 93.1638C184.527 99.9096 177.143 106.525 169.941 113.333C167.435 115.697 164.775 116.842 161.31 116.706C156.325 116.513 151.329 116.655 145.897 116.655C145.897 118.741 145.897 120.589 145.897 122.437C145.902 135.753 145.715 149.069 145.987 162.38C146.158 170.786 143.487 177.356 136.438 182.288C132.122 185.304 128.334 189.068 124.257 192.43C123.44 193.104 122.374 193.484 121.427 194C121.075 192.906 120.429 191.817 120.418 190.718C120.327 181.183 120.349 171.642 120.349 162.107C120.349 135.855 120.117 109.603 120.452 83.3511C120.622 70.0522 125.334 58.3348 136.2 49.9507C143.895 44.0098 152.883 41.096 162.575 41.0167C182.315 40.8466 202.061 40.9657 221.801 40.926C225.385 40.9203 228.969 40.5802 232.542 40.7049C233.829 40.7502 235.088 41.7253 236.358 42.2751C235.621 43.5563 235.19 45.2853 234.09 46.0505C226.497 51.3282 218.762 56.3961 211.078 61.549C198.976 69.6667 203.615 68.5839 189.324 68.6406C181.011 68.6746 172.697 68.5329 164.389 68.669C152.753 68.873 144.689 77.9941 146.237 89.4847Z" fill="currentColor"/>
</svg>
